<svg width="51" height="30" viewBox="0 0 51 30" fill="none" xmlns="http://www.w3.org/2000/svg">
<path d="M25.1953 29.6777C23.9648 29.6777 22.8418 29.1699 21.8262 28.1543L1.20117 7.06055C0.810547 6.65039 0.507812 6.21094 0.292969 5.74219C0.0976562 5.25391 0 4.73633 0 4.18945C0 3.4082 0.185547 2.70508 0.556641 2.08008C0.927734 1.43555 1.42578 0.927734 2.05078 0.556641C2.67578 0.185547 3.37891 0 4.16016 0C5.29297 0 6.29883 0.439453 7.17773 1.31836L26.4258 21.0938H24.0527L43.2129 1.31836C44.0918 0.439453 45.1074 0 46.2598 0C47.0215 0 47.7148 0.185547 48.3398 0.556641C48.9648 0.927734 49.4629 1.43555 49.834 2.08008C50.2051 2.70508 50.3906 3.4082 50.3906 4.18945C50.3906 5.30273 50 6.25977 49.2188 7.06055L28.5645 28.1543C28.0566 28.6816 27.5293 29.0723 26.9824 29.3262C26.4355 29.5605 25.8398 29.6777 25.1953 29.6777Z" fill="#5B4636" fill-opacity="0.5"/>
</svg>
